<svg xmlns="http://www.w3.org/2000/svg" xml:space="preserve" width="121" height="42" style="shape-rendering:geometricPrecision;text-rendering:geometricPrecision;image-rendering:optimizeQuality;fill-rule:evenodd;clip-rule:evenodd" viewBox="0 0 121 42.13"><path d="M47.53 24.78c-.08-1.37-.55-2.46-1.38-3.26-.84-.81-1.94-1.21-3.31-1.21-1.25 0-2.35.39-3.33 1.18-.98.79-1.72 1.89-2.22 3.29h10.24zm23.41 0c-.09-1.37-.55-2.46-1.38-3.26-.84-.81-1.95-1.21-3.32-1.21-1.24 0-2.35.39-3.33 1.18-.97.79-1.72 1.89-2.22 3.29h10.25zm-10.85 5.15v.58c0 1.6.41 2.83 1.23 3.67.81.83 2.01 1.25 3.59 1.25 1.11 0 2.14-.23 3.12-.69.99-.46 2.03-1.21 3.15-2.23l4.83 4.88c-1.44 1.37-3.1 2.4-4.99 3.08-1.88.69-3.98 1.03-6.31 1.03-4.14 0-7.35-1.09-9.63-3.3-2.09-2.01-3.23-4.77-3.4-8.27h-15v.58c0 1.6.41 2.83 1.24 3.67.81.83 2.01 1.25 3.59 1.25 1.1 0 2.14-.23 3.12-.69.98-.46 2.03-1.21 3.15-2.23l4.83 4.88c-1.44 1.37-3.11 2.4-4.99 3.08-1.89.69-3.99 1.03-6.32 1.03-4.13 0-7.34-1.09-9.62-3.3-.88-.84-1.59-1.82-2.13-2.93-.39.59-.82 1.17-1.3 1.71-2.62 3.02-5.91 4.52-9.86 4.52-1.75 0-3.33-.37-4.79-1.12-1.44-.75-2.84-1.93-4.2-3.52l-.73 4.64H0L6.55 0h9.04L13.4 13.79c-.07.54-.19 1.13-.37 1.77-.18.63-.41 1.36-.7 2.2 1.5-1.48 3.03-2.58 4.6-3.3 1.56-.72 3.17-1.09 4.83-1.09 3.04 0 5.55 1.14 7.49 3.43.77.89 1.38 1.89 1.85 2.99.37-.49.78-.96 1.23-1.41 2.72-2.71 6.24-4.07 10.56-4.07 3.91 0 7.07 1.2 9.45 3.59.71.72 1.32 1.5 1.82 2.36.46-.66.98-1.29 1.57-1.88 2.72-2.71 6.24-4.07 10.56-4.07 3.92 0 7.07 1.2 9.45 3.59 1.58 1.59 2.64 3.52 3.17 5.79L82.63 0h8.79l-4.24 26.3 7.83-11.99h8.72l-8.74 13.66 4.36 8.09 1.63-3.32c1.75 1.08 3.22 1.84 4.4 2.29 1.18.44 2.3.67 3.34.67.91 0 1.64-.2 2.19-.61.55-.4.82-.92.82-1.55 0-.99-1.25-1.99-3.78-3.02-.75-.3-1.34-.55-1.75-.72-2-.89-3.42-1.86-4.27-2.9-.84-1.05-1.26-2.36-1.26-3.91 0-2.5 1.04-4.56 3.12-6.2 2.07-1.65 4.74-2.48 8-2.48 1.64 0 3.25.24 4.81.7 1.56.46 3.03 1.14 4.4 2.03l-2.68 5.84c-1.18-.84-2.27-1.45-3.27-1.84-.99-.39-1.98-.58-2.96-.58-.82 0-1.5.19-2.04.57-.54.38-.81.84-.81 1.39 0 .79.9 1.53 2.68 2.21.78.29 1.4.55 1.85.75 2.49 1.08 4.23 2.2 5.22 3.35 1 1.16 1.49 2.61 1.49 4.34 0 2.73-1.05 4.92-3.16 6.58-2.11 1.65-4.93 2.48-8.44 2.48-1.99 0-3.89-.27-5.7-.78-.4-.12-.8-.25-1.19-.39l.29.54H93.5l-6.69-12.45-1.99 12.45h-8.71l1.82-11.57H60.09zm-41.05-1.27c-2.97 1.01-5.67 1.76-7.6 2.14-1.77.34-2.88.38-2.95.03-.06-.35.87-1 2.45-1.78.16-.08.27-.24.28-.4v-.01c.01-.27-.24-.42-.51-.3-4.03 1.8-6.62 3.45-6.48 4.27.15.84 3.13.61 7.47-.44.16-.04.31.01.38.13 1.49 2.47 4.67 3.53 8 2.39 4.22-1.43 5.68-4.31 6.18-6.43.28-1.23.04-2.07-7.22.4zm14.44-6.01c-.15-.86-3.25-.59-7.74.51-1.43-2.61-4.69-3.75-8.11-2.59-3.54 1.2-5.12 3.51-5.84 5.4-.49 1.31-.51 2.48 6.78 0 2.92-.99 5.58-1.73 7.5-2.12 1.82-.36 2.98-.41 3.04-.04.05.31-.74.89-2.11 1.6-.3.16-.5.48-.5.79v.01c.01.48.48.73.96.51 3.76-1.72 6.16-3.28 6.02-4.07z" style="fill:#fff;fill-rule:nonzero"/></svg>