<svg xmlns="http://www.w3.org/2000/svg" xml:space="preserve" width="398" height="87" style="shape-rendering:geometricPrecision;text-rendering:geometricPrecision;image-rendering:optimizeQuality;fill-rule:evenodd;clip-rule:evenodd" viewBox="0 0 372.86 81.46"><defs><style>.fil1,.fil2{fill:#0a35ff;fill-rule:nonzero}.fil2{fill:#a6a6a6}</style></defs><g id="Camada_x0020_1"><path d="M5.66 43.08c0-17.5 13.28-32.12 30.18-32.12 10.04 0 18.84 5.2 24.3 13.06 1.58-.34 3.23-.52 4.91-.52 11.78 0 21.34 8.79 23.75 20.18a19.584 19.584 0 0 1 12.27 18.2c0 10.81-8.72 19.58-19.47 19.58H19.29C9.44 81.46 1.3 74.11 0 64.56v-5.37a19.55 19.55 0 0 1 5.96-11.58c-.2-1.48-.3-3-.3-4.53zM35.84 18.8c-12.13 0-22.39 10.63-22.39 24.28 0 1.82.18 3.6.53 5.3.31 1.51-.29 3.07-1.53 3.97a11.75 11.75 0 0 0-4.84 9.53c0 6.49 5.23 11.75 11.68 11.75H81.6c6.45 0 11.68-5.26 11.68-11.75 0-5.51-3.77-10.15-8.87-11.41a3.916 3.916 0 0 1-2.94-3.36c-1.03-9.1-8.17-15.78-16.42-15.78-1.86 0-3.65.33-5.31.94-1.79.67-3.8-.08-4.73-1.75C51.03 23.4 43.87 18.8 35.84 18.8zm37.43-.19c-.45-2.11.89-4.2 2.99-4.65 4.1-.89 8.82.3 12.76 2.97 2.18 1.48 3.99 3.32 5.31 5.33 1.51 2.32 2.47 5.03 2.39 7.78a3.908 3.908 0 0 1-4.01 3.8 3.904 3.904 0 0 1-3.77-4.04c.02-.78-.26-1.93-1.12-3.24-.72-1.1-1.78-2.2-3.15-3.13-2.59-1.76-5.17-2.16-6.78-1.81-2.1.45-4.17-.9-4.62-3.01zm.49-13.52c-.45-2.12.89-4.2 2.99-4.65C82.96-.9 90.37.87 96.72 5.17c3.49 2.37 6.35 5.29 8.41 8.45 2.4 3.65 3.82 7.79 3.69 11.84a3.908 3.908 0 0 1-4.01 3.8 3.904 3.904 0 0 1-3.77-4.04c.06-2.07-.68-4.65-2.41-7.3-1.47-2.25-3.59-4.43-6.27-6.25C87.37 8.28 82.09 7.3 78.38 8.1c-2.1.45-4.17-.9-4.62-3.01z" style="fill:#a6a6a6"/><path d="M129.18 80.07V0h17.69v39.28c.34-1.09 1.26-2.29 2.71-3.59 1.46-1.3 3.38-2.43 5.76-3.38 2.39-.95 5.08-1.41 8.11-1.41 4.65 0 8.69 1.14 12.1 3.43 3.42 2.29 6.05 5.33 7.92 9.16 1.86 3.82 2.79 8.06 2.79 12.72 0 4.65-.93 8.88-2.79 12.7-1.87 3.82-4.5 6.87-7.92 9.14-3.41 2.27-7.45 3.41-12.1 3.41-2.56 0-4.97-.46-7.24-1.37-2.27-.92-4.22-2.08-5.87-3.5-1.65-1.41-2.87-2.83-3.65-4.26v7.74h-17.51zm39.74-23.86c0-2.17-.47-4.13-1.42-5.86-.95-1.72-2.25-3.08-3.9-4.07-1.65-.99-3.51-1.48-5.56-1.48-2.14 0-4.04.49-5.72 1.48a10.78 10.78 0 0 0-4 4.07c-.97 1.73-1.45 3.69-1.45 5.86 0 2.17.48 4.11 1.45 5.84.97 1.72 2.31 3.08 4 4.05 1.68.97 3.58 1.46 5.72 1.46 2.05 0 3.91-.49 5.56-1.46 1.65-.97 2.95-2.33 3.9-4.05.95-1.73 1.42-3.67 1.42-5.84z" class="fil1"/><path id="1" d="M199.1 59.93c.12 1.71.66 3.22 1.63 4.54.97 1.32 2.33 2.35 4.06 3.1 1.72.76 3.76 1.15 6.12 1.15 2.25 0 4.29-.23 6.09-.7 1.81-.46 3.38-1.05 4.72-1.74 1.34-.7 2.36-1.42 3.1-2.16l6.87 10.94c-.97 1.05-2.33 2.06-4.09 3.05-1.77.99-4.1 1.8-6.97 2.42-2.87.62-6.5.93-10.88.93-5.27 0-9.97-.99-14.08-2.97-4.11-1.97-7.35-4.88-9.72-8.72-2.36-3.84-3.55-8.54-3.55-14.08 0-4.66 1.03-8.87 3.07-12.61 2.03-3.74 4.98-6.71 8.86-8.9 3.88-2.2 8.55-3.28 14.02-3.28 5.2 0 9.72.95 13.54 2.85 3.82 1.9 6.77 4.71 8.85 8.46 2.07 3.74 3.1 8.41 3.1 14 0 .31 0 .93-.02 1.86s-.08 1.55-.15 1.86H199.1zm18.1-9.25c-.04-1.24-.37-2.48-.99-3.7-.62-1.23-1.55-2.23-2.79-3.03-1.24-.79-2.83-1.18-4.78-1.18-1.93 0-3.56.37-4.9 1.12-1.34.76-2.37 1.75-3.07 2.95a8.63 8.63 0 0 0-1.16 3.84h17.69z" class="fil1"/><path id="2" d="M247.62 59.93c.11 1.71.66 3.22 1.62 4.54.98 1.32 2.33 2.35 4.06 3.1 1.72.76 3.76 1.15 6.13 1.15 2.25 0 4.28-.23 6.09-.7 1.8-.46 3.37-1.05 4.71-1.74 1.34-.7 2.37-1.42 3.1-2.16l6.87 10.94c-.97 1.05-2.33 2.06-4.09 3.05-1.77.99-4.09 1.8-6.97 2.42-2.87.62-6.49.93-10.88.93-5.27 0-9.96-.99-14.08-2.97-4.11-1.97-7.35-4.88-9.72-8.72-2.36-3.84-3.54-8.54-3.54-14.08 0-4.66 1.02-8.87 3.06-12.61s4.98-6.71 8.86-8.9c3.88-2.2 8.56-3.28 14.03-3.28 5.2 0 9.71.95 13.54 2.85 3.82 1.9 6.76 4.71 8.84 8.46 2.08 3.74 3.1 8.41 3.1 14 0 .31 0 .93-.02 1.86-.01.93-.07 1.55-.15 1.86h-34.56zm18.09-9.25c-.04-1.24-.37-2.48-.99-3.7-.62-1.23-1.55-2.23-2.79-3.03-1.24-.79-2.83-1.18-4.77-1.18-1.94 0-3.57.37-4.91 1.12-1.34.76-2.36 1.75-3.06 2.95-.7 1.2-1.09 2.48-1.17 3.84h17.69z" class="fil1"/><path id="3" d="M314.63 32.29h20.02L312.13 55.1l24.85 24.97h-20.49l-18.44-19.21v19.21h-17.69V0h17.69v48.94z" class="fil1"/><path id="4" d="M353.66 30.9c3.14 0 6.01.25 8.61.77 2.6.53 4.79 1.13 6.56 1.79 1.76.66 2.89 1.2 3.39 1.63l-5.76 10.41c-.73-.54-2.09-1.24-4.09-2.09-2-.86-4.23-1.28-6.67-1.28-1.86 0-3.44.27-4.72.83-1.28.56-1.92 1.46-1.92 2.66 0 1.2.72 2.15 2.14 2.87 1.41.72 3.45 1.36 6.13 1.9 2.32.47 4.69 1.2 7.1 2.21 2.4 1.01 4.42 2.48 6.03 4.44 1.61 1.96 2.4 4.58 2.4 7.84 0 3.34-.71 6.09-2.15 8.26s-3.34 3.86-5.7 5.06c-2.37 1.21-4.93 2.04-7.68 2.53-2.76.48-5.43.73-8.03.73-3.65 0-6.81-.33-9.51-.99-2.69-.66-4.89-1.41-6.55-2.27-1.67-.85-2.84-1.53-3.49-2.03l5.7-11.64c1.01.85 2.66 1.8 4.94 2.87 2.29 1.07 4.72 1.61 7.28 1.61 2.48 0 4.4-.37 5.76-1.11 1.36-.73 2.03-1.7 2.03-2.9 0-.97-.33-1.75-.98-2.33-.66-.58-1.6-1.09-2.8-1.51-1.2-.43-2.65-.82-4.36-1.17-1.55-.31-3.2-.79-4.95-1.45-1.74-.66-3.39-1.57-4.94-2.72a13.392 13.392 0 0 1-3.79-4.32c-.97-1.75-1.45-3.86-1.45-6.35 0-3.18 1.03-5.81 3.08-7.91 2.06-2.09 4.72-3.69 7.98-4.75 3.25-1.07 6.73-1.59 10.41-1.59z" class="fil1"/><path d="M76.1 63.21h-5.95l-4.97-12.73-5.02 12.73h-5.97l8.43-19.76h5.09zM46.25 43.44l-8.39 19.78h-5.09l-8.43-19.78h5.97l5.02 12.73 4.97-12.73z" class="fil2"/></g></svg>